<svg width="1080" height="1080" viewBox="0 0 1080 1080" fill="none" xmlns="http://www.w3.org/2000/svg">
<rect width="1080" height="1080" rx="540" fill="#090E16"/>
<path d="M485.74 315.558C486.309 326.668 489.395 337.306 494.819 346.849C508.348 374.04 513.64 404.592 510.223 435.778C506.824 466.905 494.81 497.696 475.259 525.382C467.596 534.829 462.003 545.344 458.819 556.29C455.634 567.236 454.924 578.386 456.732 589.065C458.54 599.744 462.828 609.73 469.337 618.419C475.845 627.108 484.439 634.319 494.598 639.616C508.168 646.691 524.133 650.109 540.675 649.468C550.709 650.144 560.621 651.311 570.369 652.992L595.615 658.753C642.901 671.256 680.874 699.997 701.772 739.102C706.552 748.965 713.635 757.642 722.602 764.619C731.57 771.596 742.241 776.732 753.987 779.725C765.692 782.728 778.239 783.52 790.88 782.054C803.52 780.588 815.995 776.894 827.559 771.192C839.112 765.486 849.522 757.899 858.173 748.882C866.824 739.864 873.54 729.598 877.924 718.691C882.302 707.743 884.263 696.38 883.692 685.266C883.122 674.153 880.031 663.513 874.602 653.968C867.775 641.469 857.13 631.182 843.736 624.14C830.378 617.104 814.737 613.565 798.395 613.881C730.518 611.921 665.278 576.394 637.429 523.568C617.066 484.629 615.131 438.495 632.014 394.494L656.43 344.902C666.303 332.331 672.542 318.024 674.514 303.408C676.517 288.799 674.129 274.42 667.68 261.723C662.897 251.862 655.813 243.187 646.846 236.21C637.878 229.234 627.209 224.096 615.465 221.1C603.76 218.1 591.213 217.309 578.572 218.775C565.932 220.241 553.458 223.933 541.893 229.632C530.335 235.338 519.921 242.926 511.266 251.945C502.611 260.965 495.892 271.234 491.507 282.144C487.132 293.089 485.171 304.449 485.74 315.558Z" fill="#88FF9A"/>
<path d="M229.674 775.492C213.883 768.219 201.41 756.676 193.833 742.312C183.697 723.049 183.075 700.092 192.104 678.445C196.564 667.761 203.265 657.721 211.825 648.901C220.385 640.081 230.636 632.653 241.989 627.044C259.099 618.618 278.069 614.644 296.481 615.628C314.932 616.614 331.998 622.501 345.523 632.548C359.062 642.609 368.467 656.367 372.558 672.099C376.65 687.831 375.247 704.837 368.524 720.986C361.827 737.09 350.075 751.606 334.769 762.68C319.463 773.754 301.297 780.884 282.591 783.158C263.867 785.433 245.45 782.765 229.674 775.492Z" fill="#88FF9A"/>
</svg>
